<svg width="710" height="1024" viewBox="0 0 710 1024" fill="none" xmlns="http://www.w3.org/2000/svg">
<path d="M393.751 561.386C392.521 561.386 391.33 561.276 390.206 561.065C376.444 558.485 364.419 537.956 363.913 537.082C363.759 536.815 363.849 536.474 364.116 536.32C364.383 536.165 364.724 536.255 364.879 536.522C364.999 536.731 377.155 557.482 390.413 559.967C396.162 561.043 404.409 559.204 408.932 552.618C414.545 544.446 412.616 531.807 403.504 517.031C383.374 484.392 350.236 479.96 349.903 479.92C349.598 479.882 349.381 479.605 349.417 479.297C349.455 478.992 349.738 478.772 350.039 478.812C350.377 478.854 384.045 483.356 404.451 516.444C417.081 536.92 413.255 548.294 409.85 553.25C405.879 559.031 399.419 561.384 393.749 561.386H393.751Z" fill="black"/>
<path d="M275.136 483.368C274.91 483.368 274.697 483.23 274.614 483.005C274.508 482.716 274.655 482.395 274.944 482.288C282.466 479.494 287.593 478.84 287.808 478.814C288.117 478.774 288.392 478.992 288.43 479.297C288.468 479.603 288.252 479.882 287.944 479.92C287.892 479.926 282.719 480.588 275.331 483.332C275.267 483.356 275.201 483.366 275.136 483.366V483.368Z" fill="black"/>
<path d="M318.925 466.269C304.242 466.269 292.337 467.574 292.337 469.186V474.913C292.337 482.714 295.605 490.158 301.349 495.439L313.004 506.156C313.785 506.871 314.394 507.734 314.811 508.682C315.225 509.629 315.448 510.661 315.448 511.721V525.628C315.448 526.817 316.407 527.774 317.594 527.774C318.19 527.774 318.726 527.535 319.111 527.144C319.501 526.758 319.742 526.218 319.742 525.626V519.989C319.742 519.259 320.338 518.663 321.075 518.663C321.438 518.663 321.771 518.512 322.012 518.273C322.253 518.034 322.402 517.699 322.402 517.332V511.723C322.402 509.609 323.289 507.592 324.845 506.158L336.505 495.441C342.242 490.159 345.51 482.716 345.51 474.915V469.188C345.51 467.576 333.61 466.271 318.927 466.271L318.925 466.269Z" fill="#F7FBFF"/>
<path d="M318.925 575.109C304.242 575.109 292.337 576.419 292.337 578.031V653.867H345.508V578.031C345.508 576.419 333.608 575.109 318.925 575.109Z" fill="#F7FBFF"/>
<path d="M366.3 677.757H352.762V656.095C352.762 654.863 351.764 653.865 350.531 653.865H287.32C286.087 653.865 285.09 654.863 285.09 656.095V677.757H271.551C269.981 677.757 268.708 679.03 268.708 680.599C268.708 682.169 269.981 683.442 271.551 683.442H366.302C367.872 683.442 369.145 682.169 369.145 680.599C369.145 679.03 367.872 677.757 366.302 677.757H366.3Z" fill="#BFDBFE"/>
<path d="M304.836 453.824C307.36 453.824 309.407 451.777 309.407 449.253C309.407 446.728 307.36 444.682 304.836 444.682C302.311 444.682 300.265 446.728 300.265 449.253C300.265 451.777 302.311 453.824 304.836 453.824Z" fill="black"/>
<path d="M333.012 453.824C335.536 453.824 337.583 451.777 337.583 449.253C337.583 446.728 335.536 444.682 333.012 444.682C330.487 444.682 328.44 446.728 328.44 449.253C328.44 451.777 330.487 453.824 333.012 453.824Z" fill="black"/>
<path d="M318.923 460.311C317.453 460.311 315.966 459.414 315.966 457.702C315.966 457.24 316.339 456.865 316.803 456.865C317.266 456.865 317.64 457.24 317.64 457.702C317.64 458.627 318.87 458.639 318.925 458.639C318.979 458.639 320.209 458.629 320.209 457.702C320.209 457.24 320.583 456.865 321.047 456.865C321.51 456.865 321.884 457.24 321.884 457.702C321.884 459.414 320.396 460.311 318.927 460.311H318.923Z" fill="black"/>
<path d="M366.3 340H318.925H271.549C269.979 340 268.706 341.273 268.706 342.842C268.706 344.412 269.979 345.685 271.549 345.685H285.088V367.347C285.088 368.579 286.087 369.577 287.318 369.577H350.529C351.762 369.577 352.76 368.579 352.76 367.347V345.685H366.298C367.868 345.685 369.141 344.412 369.141 342.842C369.141 341.273 367.868 340 366.298 340H366.3Z" fill="#BFDBFE"/>
<path d="M351.431 678.315H310.577C310.27 678.315 310.019 678.066 310.019 677.757C310.019 677.448 310.268 677.199 310.577 677.199H351.431C351.738 677.199 351.989 677.448 351.989 677.757C351.989 678.066 351.74 678.315 351.431 678.315Z" fill="black"/>
<path d="M301.503 678.315H287.418C287.111 678.315 286.86 678.066 286.86 677.757C286.86 677.448 287.109 677.199 287.418 677.199H301.503C301.81 677.199 302.061 677.448 302.061 677.757C302.061 678.066 301.812 678.315 301.503 678.315Z" fill="black"/>
<path d="M336.878 527.595L325.22 516.874C323.783 515.553 322.958 513.674 322.958 511.721C322.958 509.768 323.783 507.889 325.22 506.568L336.878 495.846C342.718 490.477 346.066 482.847 346.066 474.913V370.454C346.066 370.145 345.818 369.896 345.508 369.896C345.199 369.896 344.95 370.145 344.95 370.454V469.116C344.788 469.281 343.519 470.222 335.208 470.935C334.901 470.961 334.674 471.232 334.7 471.537C334.724 471.828 334.969 472.047 335.256 472.047C335.272 472.047 335.288 472.047 335.304 472.045C341.011 471.555 343.692 470.945 344.95 470.391V474.913C344.95 482.535 341.732 489.864 336.121 495.023L324.463 505.745C322.797 507.277 321.842 509.455 321.842 511.719C321.842 513.983 322.797 516.161 324.463 517.693L336.121 528.414C341.732 533.574 344.95 540.905 344.95 548.525V577.963C344.127 578.963 334.499 580.388 318.925 580.388C316.56 580.388 314.207 580.354 311.926 580.286C311.621 580.294 311.362 580.519 311.352 580.828C311.342 581.135 311.585 581.392 311.892 581.402C314.183 581.47 316.548 581.504 318.923 581.504C326.045 581.504 332.742 581.199 337.781 580.647C341.823 580.203 343.89 579.702 344.95 579.24V652.628C344.95 652.938 345.199 653.186 345.508 653.186C345.818 653.186 346.066 652.938 346.066 652.628V548.525C346.066 540.591 342.718 532.961 336.878 527.591V527.595Z" fill="black"/>
<path d="M324.991 471.473C323.032 471.523 320.99 471.549 318.925 471.549C303.356 471.549 293.728 470.124 292.895 469.12V370.454C292.895 370.145 292.646 369.896 292.337 369.896C292.028 369.896 291.779 370.145 291.779 370.454V469.182C291.779 469.182 291.779 469.182 291.779 469.184C291.779 469.204 291.779 469.226 291.779 469.248V474.913C291.779 482.847 295.127 490.477 300.967 495.846L312.625 506.568C314.062 507.889 314.888 509.768 314.888 511.721C314.888 513.674 314.062 515.553 312.625 516.874L300.967 527.595C295.127 532.965 291.779 540.595 291.779 548.529V578.029C291.779 578.029 291.779 578.031 291.779 578.033C291.779 578.055 291.779 578.08 291.779 578.106V652.632C291.779 652.941 292.028 653.19 292.337 653.19C292.646 653.19 292.895 652.941 292.895 652.632V579.248C294.256 579.846 297.281 580.51 304.019 581.008C304.033 581.008 304.047 581.008 304.061 581.008C304.35 581.008 304.595 580.786 304.617 580.492C304.639 580.185 304.41 579.918 304.103 579.894C296.027 579.296 293.268 578.389 292.897 577.965V548.527C292.897 540.905 296.115 533.576 301.726 528.416L313.384 517.695C315.05 516.163 316.006 513.985 316.006 511.721C316.006 509.457 315.05 507.279 313.384 505.747L301.726 495.025C296.115 489.866 292.897 482.535 292.897 474.915V470.397C293.957 470.858 296.025 471.36 300.066 471.806C305.109 472.36 311.808 472.665 318.927 472.665C321.002 472.665 323.052 472.639 325.024 472.589C325.331 472.581 325.576 472.324 325.566 472.017C325.558 471.709 325.299 471.457 324.993 471.475L324.991 471.473Z" fill="black"/>
<path d="M317.592 528.332C316.1 528.332 314.887 527.12 314.887 525.628V521.652C314.887 521.342 315.136 521.094 315.446 521.094C315.755 521.094 316.004 521.342 316.004 521.652V525.628C316.004 526.503 316.716 527.218 317.594 527.218C318.021 527.218 318.419 527.053 318.714 526.754C319.015 526.459 319.184 526.05 319.184 525.63V524.715C319.184 524.406 319.433 524.157 319.742 524.157C320.051 524.157 320.3 524.406 320.3 524.715V525.63C320.3 526.349 320.009 527.045 319.503 527.545C319.003 528.053 318.322 528.336 317.594 528.336L317.592 528.332Z" fill="black"/>
<path d="M321.073 519.221C320.766 519.221 320.515 518.972 320.515 518.663C320.515 518.353 320.764 518.104 321.073 518.104C321.273 518.104 321.47 518.022 321.615 517.878C321.761 517.731 321.842 517.536 321.842 517.33V516.739C321.842 516.43 322.091 516.181 322.4 516.181C322.709 516.181 322.958 516.43 322.958 516.739V517.33C322.958 517.833 322.761 518.309 322.404 518.667C322.052 519.018 321.567 519.221 321.073 519.221Z" fill="black"/>
<path d="M342.662 346.243H298.239C297.932 346.243 297.681 345.994 297.681 345.685C297.681 345.376 297.93 345.127 298.239 345.127H342.662C342.969 345.127 343.22 345.376 343.22 345.685C343.22 345.994 342.971 346.243 342.662 346.243Z" fill="black"/>
<path d="M581.016 529.32H128.984C124.851 529.32 121.5 532.67 121.5 536.803C121.5 540.936 124.851 544.287 128.984 544.287H581.016C585.149 544.287 588.5 540.936 588.5 536.803C588.5 532.67 585.149 529.32 581.016 529.32Z" fill="#6B7180"/>
<path d="M462.796 544.257C462.724 544.257 462.65 544.243 462.58 544.213C459.596 542.95 457.669 540.043 457.669 536.803C457.669 533.563 459.51 530.801 462.359 529.492C462.638 529.366 462.969 529.486 463.098 529.767C463.226 530.047 463.104 530.378 462.824 530.506C460.371 531.632 458.785 534.105 458.785 536.803C458.785 539.501 460.446 542.099 463.015 543.185C463.298 543.305 463.431 543.633 463.312 543.916C463.222 544.128 463.015 544.257 462.798 544.257H462.796Z" fill="#374151"/>
<path d="M467.089 684C466.781 684 466.53 683.751 466.53 683.442V544.287C466.53 543.978 466.779 543.729 467.089 543.729C467.398 543.729 467.647 543.978 467.647 544.287V683.442C467.647 683.751 467.398 684 467.089 684Z" fill="#374151"/>
<path d="M579.637 684C579.33 684 579.079 683.751 579.079 683.442V544.287C579.079 543.978 579.328 543.729 579.637 543.729C579.946 543.729 580.195 543.978 580.195 544.287V683.442C580.195 683.751 579.946 684 579.637 684Z" fill="#374151"/>
<path d="M242.913 684C242.606 684 242.355 683.751 242.355 683.442V544.287C242.355 543.978 242.604 543.729 242.913 543.729C243.223 543.729 243.472 543.978 243.472 544.287V683.442C243.472 683.751 243.223 684 242.913 684Z" fill="#374151"/>
<path d="M130.363 684C130.056 684 129.805 683.751 129.805 683.442V544.287C129.805 543.978 130.054 543.729 130.363 543.729C130.672 543.729 130.921 543.978 130.921 544.287V683.442C130.921 683.751 130.672 684 130.363 684Z" fill="#374151"/>
<path d="M341.674 521.652H297.211L270.312 454.141C269.804 452.868 268.574 452.033 267.205 452.033H153.082C151.507 452.033 150.427 453.625 151.011 455.088L180.588 529.32H341.674C343.792 529.32 345.508 527.604 345.508 525.486C345.508 523.368 343.792 521.652 341.674 521.652Z" fill="#E5E7EB"/>
<path d="M298.739 526.044C298.518 526.044 298.307 525.911 298.221 525.692L296.703 521.884C296.589 521.599 296.729 521.274 297.014 521.16C297.302 521.043 297.625 521.186 297.739 521.471L299.257 525.279C299.371 525.564 299.231 525.889 298.946 526.004C298.877 526.032 298.809 526.044 298.739 526.044Z" fill="black"/>
<path d="M420.13 453.518C417.013 453.518 414.477 450.983 414.477 447.866C414.477 444.748 417.013 442.213 420.13 442.213C423.248 442.213 425.784 444.748 425.784 447.866C425.784 450.983 423.248 453.518 420.13 453.518ZM420.13 443.329C417.629 443.329 415.593 445.364 415.593 447.866C415.593 450.367 417.629 452.402 420.13 452.402C422.632 452.402 424.667 450.367 424.667 447.866C424.667 445.364 422.632 443.329 420.13 443.329Z" fill="black"/>
<path d="M518.447 496.796C518.14 496.796 517.889 496.547 517.889 496.238V492.705C517.889 492.396 518.138 492.147 518.447 492.147C518.756 492.147 519.005 492.396 519.005 492.705V496.238C519.005 496.547 518.756 496.796 518.447 496.796Z" fill="black"/>
<path d="M518.447 489.595C518.14 489.595 517.889 489.347 517.889 489.037V485.504C517.889 485.195 518.138 484.946 518.447 484.946C518.756 484.946 519.005 485.195 519.005 485.504V489.037C519.005 489.347 518.756 489.595 518.447 489.595Z" fill="black"/>
<path d="M516.612 491.43H513.079C512.772 491.43 512.521 491.181 512.521 490.872C512.521 490.563 512.77 490.314 513.079 490.314H516.612C516.919 490.314 517.17 490.563 517.17 490.872C517.17 491.181 516.921 491.43 516.612 491.43Z" fill="black"/>
<path d="M523.813 491.43H520.28C519.973 491.43 519.722 491.181 519.722 490.872C519.722 490.563 519.971 490.314 520.28 490.314H523.813C524.12 490.314 524.371 490.563 524.371 490.872C524.371 491.181 524.122 491.43 523.813 491.43Z" fill="black"/>
<path d="M207.701 406.8C207.394 406.8 207.143 406.551 207.143 406.242V400.31C207.143 400.001 207.392 399.752 207.701 399.752C208.011 399.752 208.259 400.001 208.259 400.31V406.242C208.259 406.551 208.011 406.8 207.701 406.8Z" fill="black"/>
<path d="M207.701 394.714C207.394 394.714 207.143 394.465 207.143 394.156V388.226C207.143 387.917 207.392 387.668 207.701 387.668C208.011 387.668 208.259 387.917 208.259 388.226V394.156C208.259 394.465 208.011 394.714 207.701 394.714Z" fill="black"/>
<path d="M204.624 397.793H198.694C198.386 397.793 198.135 397.544 198.135 397.235C198.135 396.926 198.384 396.677 198.694 396.677H204.624C204.931 396.677 205.182 396.926 205.182 397.235C205.182 397.544 204.933 397.793 204.624 397.793Z" fill="black"/>
<path d="M216.711 397.793H210.779C210.472 397.793 210.221 397.544 210.221 397.235C210.221 396.926 210.47 396.677 210.779 396.677H216.711C217.018 396.677 217.269 396.926 217.269 397.235C217.269 397.544 217.02 397.793 216.711 397.793Z" fill="black"/>
<path d="M399.196 529.153C399.047 528.683 395.492 517.629 388.642 517.145C387.984 517.097 387.371 517.167 386.799 517.314C385.946 516.364 383.063 513.714 378.655 515.362C378.418 515.451 378.187 515.559 377.958 515.684C377.069 514.682 374.439 512.315 370.584 513.971C368.29 514.959 365.909 518.61 364.845 522.141C364.694 522.137 364.52 522.135 364.309 522.139C358.136 516.826 350.429 514.923 350.102 514.844C349.803 514.774 349.501 514.957 349.429 515.256C349.357 515.555 349.542 515.856 349.841 515.928C349.915 515.947 356.895 517.673 362.713 522.27C361.259 522.483 359.533 523.017 358.457 524.315C357.407 525.586 357.18 527.318 357.784 529.468C357.853 529.715 358.078 529.876 358.32 529.876C358.371 529.876 358.421 529.87 358.471 529.856C358.768 529.771 358.941 529.464 358.856 529.167C358.359 527.391 358.511 526 359.314 525.028C360.615 523.45 363.311 523.255 364.55 523.253C364.301 524.378 364.205 525.46 364.309 526.403C364.526 528.326 365.564 529.557 367.234 529.866C367.559 529.926 367.872 529.954 368.171 529.954C370.305 529.954 371.821 528.533 372.767 527.007C373.098 528.601 374.039 529.607 375.469 529.866C375.88 529.94 376.27 529.974 376.635 529.974C379.036 529.974 380.474 528.483 381.357 526.925C381.642 528.617 382.575 529.729 383.971 529.902C384.177 529.928 384.378 529.94 384.573 529.94C388.921 529.94 390.846 523.932 390.931 523.665C391.023 523.372 390.859 523.059 390.565 522.966C390.27 522.876 389.959 523.039 389.867 523.334C389.849 523.394 387.97 529.278 384.107 528.796C382.606 528.609 382.258 526.65 382.415 525.03C382.654 522.583 384.121 519.403 386.723 518.498C386.727 518.498 386.729 518.498 386.733 518.496C387.289 518.303 387.895 518.209 388.556 518.255C394.649 518.687 398.092 529.378 398.126 529.486C398.218 529.78 398.531 529.944 398.824 529.85C399.118 529.757 399.282 529.444 399.188 529.151L399.196 529.153ZM372.735 524.384C372.676 524.592 371.267 529.478 367.441 528.772C366.244 528.551 365.584 527.736 365.421 526.281C365.004 522.563 368.145 516.234 371.024 514.997C374.144 513.654 376.248 515.447 377.031 516.31C374.778 518.084 373.124 521.457 372.735 524.382V524.384ZM381.61 523.334C381.61 523.334 381.6 523.348 381.596 523.358C381.556 523.476 381.511 523.617 381.461 523.775C380.57 526.602 379.183 529.408 375.674 528.774C374.551 528.571 373.915 527.71 373.78 526.216C373.483 522.906 375.981 517.556 379.044 516.41C382.443 515.138 384.722 516.798 385.667 517.733C383.557 518.801 382.198 521.128 381.61 523.336V523.334Z" fill="black"/>
</svg>
